# xmcd CD database file
#
# Track frame offsets:
#	150
#	27140
#	50872
#	76920
#	121812
#	145430
#	173310
#	200985
#	225650
#	266515
#
# Disc length: 3699 seconds
#
# Revision: 9
# Processed by: cddbd v1.5.2PL0 Copyright (c) Steve Scherf et al.
# Submitted via: CDex 1.70beta2
#
DISCID=850e710a
DTITLE=Jan Garbarek - I Took Up the Runes
DYEAR=1990
DGENRE=Jazz
TTITLE0=Gula Gula
TTITLE1=Molde Canticle, pt. 1
TTITLE2=Molde Canticle, pt. 2
TTITLE3=Molde Canticle, pt. 3
TTITLE4=Molde Canticle, pt. 4
TTITLE5=Molde Canticle, pt. 5
TTITLE6=His Eyes Were Suns
TTITLE7=I Took Up The Runes
TTITLE8=Bueno Hora, Buenos Vientos
TTITLE9=Rahkki Sruvvis
EXTD=YEAR: 1990
EXTT0=
EXTT1=
EXTT2=
EXTT3=
EXTT4=
EXTT5=
EXTT6=
EXTT7=
EXTT8=
EXTT9=
PLAYORDER=
